<svg width="168" height="27" viewBox="0 0 168 27" fill="none" xmlns="http://www.w3.org/2000/svg">
<path d="M0 0.373047V8.60651H2.96599V3.09043H13.9856V0.373047H0ZM2.96755 17.0354V11.2129H0.00156266V19.7935H13.9591V17.0354H2.96755ZM2.96755 7.91388H0.00156266V8.62058H2.96755V7.91388Z" fill="white"/>
<path d="M12.5599 8.62109H2.96777V11.2134H12.5599V8.62109Z" fill="white"/>
<path d="M23.7449 12.7525L28.8732 5.84961H25.5461L21.9422 10.659L18.3258 5.84961H14.9845L20.1129 12.7525L14.7344 19.7946H18.0897L21.9437 14.7913L25.7697 19.7946H29.125L23.7449 12.7525Z" fill="white"/>
<path d="M43.3031 7.58223C41.9725 6.18288 40.323 5.48868 38.3405 5.48868V5.47461C36.1781 5.47461 34.5146 6.3064 33.3497 7.95591V5.84985H30.4385V25.6158H33.3497V17.6731C34.5146 19.3227 36.1781 20.1544 38.3405 20.1544C40.323 20.1544 41.9725 19.4477 43.3031 18.0609C44.6336 16.6616 45.2856 14.9151 45.2856 12.8216C45.2856 10.7155 44.6336 8.96906 43.3031 7.58223ZM41.1407 16.205C40.2808 17.0915 39.1863 17.5356 37.8558 17.5356L37.8699 17.5496C36.5815 17.5496 35.4855 17.1056 34.599 16.2191C33.6984 15.3185 33.2544 14.1818 33.2544 12.8231C33.2544 11.4644 33.6984 10.3418 34.599 9.45532C35.4855 8.55473 36.5675 8.11069 37.8558 8.11069C39.2004 8.11069 40.2949 8.55473 41.1548 9.44124C42.0007 10.3152 42.4166 11.4379 42.4166 12.8091C42.4166 14.1677 41.9866 15.3044 41.1407 16.205Z" fill="white"/>
<path d="M60.9087 12.5581C60.9087 10.5349 60.2708 8.85725 58.9965 7.51263C57.7207 6.16801 55.9883 5.50195 53.7853 5.50195C51.6652 5.50195 49.9312 6.20866 48.6007 7.60957C47.2842 8.99641 46.6182 10.7429 46.6182 12.8489C46.6182 15.0253 47.2967 16.7999 48.6836 18.1445C50.0704 19.5032 51.8575 20.1818 54.0621 20.1818L54.0339 20.1536C55.6975 20.1536 57.1109 19.7659 58.2617 18.9888C59.4124 18.2118 60.2301 17.283 60.7289 16.1886L58.0819 15.399C57.3611 16.9093 56.0305 17.6442 54.1168 17.6442C52.744 17.6442 51.6496 17.283 50.8318 16.5638C50.0282 15.843 49.5842 14.9002 49.4872 13.7229H60.8117C60.8805 13.307 60.9087 12.9193 60.9087 12.5581ZM49.4857 11.7967C49.5967 10.7429 50.0407 9.85634 50.8162 9.12149C51.6058 8.38664 52.5908 8.02703 53.7963 8.02703C55.0439 8.02703 56.0415 8.37413 56.7904 9.08084C57.5393 9.78754 57.9552 10.6881 58.0521 11.7982H49.4857V11.7967Z" fill="white"/>
<path d="M63.0283 5.84961V19.7946H65.9396V5.84961H63.0283Z" fill="white"/>
<path d="M89.9865 17.0073V0.373047H86.9502V19.7935H100.174V17.0073H89.9865Z" fill="white"/>
<path d="M104.804 0.526904C104.458 0.179804 104.014 0 103.501 0C102.988 0 102.558 0.179804 102.199 0.526904C101.852 0.874004 101.672 1.30241 101.672 1.77459C101.672 2.28742 101.852 2.71739 102.199 3.06292C102.56 3.39595 102.988 3.57576 103.501 3.57576C104.014 3.57576 104.458 3.39595 104.804 3.06292C105.151 2.71582 105.331 2.28742 105.331 1.77459C105.331 1.30241 105.151 0.874004 104.804 0.526904ZM102.031 5.84911V19.7941H104.915V5.84911H102.031Z" fill="white"/>
<path d="M118.196 13.307C117.544 12.7395 116.657 12.2954 115.506 11.9483L111.792 10.8805C110.794 10.5756 110.294 10.1049 110.294 9.49361C110.294 9.04958 110.53 8.66182 110.986 8.31472C111.444 7.9817 112.026 7.80189 112.733 7.80189C113.551 7.80189 114.271 7.99577 114.881 8.36945C115.491 8.7572 115.935 9.21531 116.226 9.76879L118.79 9.0058C118.374 7.96606 117.625 7.1202 116.559 6.46978C115.492 5.81936 114.217 5.48633 112.761 5.48633C111.277 5.48633 110.017 5.88815 108.977 6.67773C107.938 7.48137 107.425 8.42417 107.425 9.5327C107.425 11.251 108.533 12.444 110.752 13.1085L114.509 14.217C115.147 14.4109 115.603 14.6329 115.882 14.869C116.173 15.1191 116.312 15.4506 116.312 15.8665C116.312 16.3934 116.035 16.8499 115.494 17.2111C114.953 17.5723 114.246 17.7662 113.388 17.7662C112.417 17.7662 111.573 17.5301 110.838 17.0172C110.103 16.5185 109.604 15.8946 109.354 15.1457L106.707 15.9087C107.081 17.0876 107.858 18.0992 109.077 18.9169C110.297 19.7487 111.696 20.1646 113.277 20.1646L113.346 20.1505C115.037 20.1505 116.423 19.7346 117.519 18.8888C118.627 18.057 119.182 17.0032 119.182 15.7555C119.179 14.6798 118.846 13.8746 118.196 13.307Z" fill="white"/>
<path d="M129.021 16.9532C128.411 17.2581 127.801 17.4113 127.192 17.4113C125.861 17.4113 125.195 16.6905 125.195 15.263V8.41484H129.631V5.85068H125.195V1.19141H122.312V5.84911H119.762V8.41328H122.312V15.2615C122.312 16.7452 122.673 17.9085 123.392 18.7403C124.113 19.5861 125.207 20.002 126.663 20.002C127.661 20.002 128.686 19.7941 129.74 19.336L129.021 16.9532Z" fill="white"/>
<path d="M134.58 0.526904C134.232 0.179804 133.804 0 133.277 0C132.764 0 132.334 0.179804 131.989 0.526904C131.628 0.874004 131.462 1.30241 131.462 1.77459C131.462 2.28742 131.628 2.71739 131.989 3.06292C132.336 3.39595 132.764 3.57576 133.277 3.57576C133.804 3.57576 134.234 3.39595 134.58 3.06292C134.941 2.71582 135.106 2.28742 135.106 1.77459C135.106 1.30241 134.939 0.874004 134.58 0.526904ZM131.807 5.84911V19.7941H134.691V5.84911H131.807Z" fill="white"/>
<path d="M149.633 7.09677C148.662 5.98824 147.305 5.44727 145.53 5.44727V5.47541C143.479 5.47541 141.884 6.29313 140.734 7.91449V5.84909H137.822V19.7941H140.734V12.863C140.734 11.4496 141.095 10.327 141.828 9.46706C142.563 8.6212 143.534 8.2053 144.753 8.2053C145.876 8.2053 146.736 8.5524 147.317 9.24504C147.899 9.93768 148.177 10.8945 148.177 12.1282V19.78H151.061V11.6013C151.061 9.68908 150.588 8.1928 149.633 7.09677Z" fill="white"/>
<path d="M164.977 5.84829V7.80268C163.813 6.25011 162.163 5.47461 160.071 5.47461C158.048 5.47461 156.37 6.14067 155.08 7.47122C153.778 8.80177 153.126 10.4935 153.126 12.5589C153.126 14.5821 153.778 16.2738 155.094 17.6184C156.397 18.9771 158.074 19.6557 160.085 19.6557C162.179 19.6557 163.828 18.8661 164.991 17.2995V19.3367C164.977 20.5703 164.604 21.5819 163.883 22.3731C163.176 23.1626 162.165 23.552 160.889 23.552C158.963 23.566 157.576 22.8593 156.73 21.4443L154.18 22.3731C155.524 24.7981 157.741 26.0192 160.833 26.0192C162.94 26.0192 164.644 25.3953 165.947 24.1477C167.249 22.9 167.887 21.3068 167.887 19.3383V5.90458L164.977 5.84829ZM163.744 15.8016C162.871 16.6475 161.803 17.0634 160.528 17.0634H160.5C159.197 17.0634 158.101 16.6475 157.255 15.8016C156.395 14.9698 155.965 13.9019 155.965 12.5995C155.965 11.2971 156.381 10.2433 157.241 9.42561C158.087 8.59382 159.181 8.17793 160.498 8.17793C161.788 8.17793 162.868 8.59382 163.742 9.43968C164.602 10.2715 165.032 11.3253 165.032 12.5995C165.032 13.8738 164.604 14.9417 163.744 15.8016Z" fill="white"/>
</svg>
